<svg width="64" height="64" viewBox="0 0 64 64" fill="none" xmlns="http://www.w3.org/2000/svg">
<path d="M64 32C64 14.3269 49.6731 0 32 0C14.3269 0 0 14.3269 0 32C0 49.6731 14.3269 64 32 64C49.6731 64 64 49.6731 64 32Z" fill="#8FB9A8"/>
<path d="M36.15 47.55C35.383 47.55 34.6 47.383 33.8 47.05C33.033 46.75 32.217 46.217 31.35 45.45C30.483 44.683 29.517 43.667 28.45 42.4C27.417 41.1 26.283 39.517 25.05 37.65C23.817 35.783 22.417 33.583 20.85 31.05L32.45 17.15L33.55 18.75L28.2 17.7C28.2 17.067 28.267 16.55 28.4 16.15C28.533 15.717 28.767 15.317 29.1 14.95H40.15C40.15 16.517 39.733 17.4 38.9 17.6L34.85 18.75L37.15 16.9L24.95 31.5L26 29.1C27.033 30.633 28.167 32.217 29.4 33.85C30.667 35.483 31.95 37.067 33.25 38.6C34.583 40.1 35.883 41.483 37.15 42.75C38.417 43.983 39.583 44.983 40.65 45.75C40.017 46.317 39.317 46.75 38.55 47.05C37.783 47.383 36.983 47.55 36.15 47.55ZM10.7 47C10.7 46.267 10.767 45.683 10.9 45.25C11.067 44.817 11.267 44.55 11.5 44.45L15 43.35L14.1 44.4V17.7L15.05 18.75L10.7 17.7C10.7 17.133 10.767 16.65 10.9 16.25C11.033 15.817 11.3 15.383 11.7 14.95H24.05C24.05 15.65 23.983 16.233 23.85 16.7C23.717 17.167 23.517 17.433 23.25 17.5L19.4 18.6L20.55 17.55V44.25L19.35 43.2L24.05 44.25C24.05 44.783 23.983 45.267 23.85 45.7C23.75 46.1 23.5 46.533 23.1 47H10.7ZM50.294 47.6C49.194 47.6 48.344 47.283 47.744 46.65C47.177 46.017 46.894 45.2 46.894 44.2C46.894 43.233 47.227 42.433 47.894 41.8C48.594 41.133 49.394 40.8 50.294 40.8C51.427 40.8 52.277 41.117 52.844 41.75C53.444 42.35 53.744 43.167 53.744 44.2C53.744 45.167 53.394 45.983 52.694 46.65C52.027 47.283 51.227 47.6 50.294 47.6Z" fill="#325D79"/>
</svg>
